<?xml version="1.0" encoding="utf-8"?><svg xmlns="http://www.w3.org/2000/svg" xmlns:xlink="http://www.w3.org/1999/xlink" width="1185" height="705" preserveAspectRatio="xMidYMid" viewBox="0 0 1185 705" style="z-index:1;margin-right:-2px;display:block;background-repeat-y:initial;background-repeat-x:initial;background-color:rgb(241, 242, 243);animation-play-state:paused" ><g transform="translate(592.5,352.5) scale(1,1) translate(-592.5,-352.5)" style="transform:matrix(1, 0, 0, 1, 0, 0);animation-play-state:paused" ><linearGradient id="lg-0.2860871880816833" x1="0" x2="1" y1="0" y2="0" style="animation-play-state:paused" ><stop stop-color="#0f53c8" offset="0" style="animation-play-state:paused" ></stop>

  
<stop stop-color="#5ee029" offset="1" style="animation-play-state:paused" ></stop></linearGradient>
<path d="M 0 0 L 0 639.699 Q 118.5 560.768 237 532.687 T 474 472.404 T 711 486.433 T 948 319.35 T 1185 270.446 L 1185 0 Z" fill="url(#lg-0.2860871880816833)" opacity="0.4" style="opacity:0.4;animation-play-state:paused" ></path>
<path d="M 0 0 L 0 666.93 Q 118.5 586.783 237 561.243 T 474 543.723 T 711 459.882 T 948 356.673 T 1185 272.512 L 1185 0 Z" fill="url(#lg-0.2860871880816833)" opacity="0.4" style="opacity:0.4;animation-play-state:paused" ></path>
<path d="M 0 0 L 0 615.483 Q 118.5 647.884 237 620.332 T 474 482.116 T 711 401.163 T 948 409.617 T 1185 347.786 L 1185 0 Z" fill="url(#lg-0.2860871880816833)" opacity="0.4" style="opacity:0.4;animation-play-state:paused" ></path>
<path d="M 0 0 L 0 660.78 Q 118.5 638.156 237 592.12 T 474 511.924 T 711 425.878 T 948 438.562 T 1185 329.086 L 1185 0 Z" fill="url(#lg-0.2860871880816833)" opacity="0.4" style="opacity:0.4;animation-play-state:paused" ></path>
<path d="M 0 0 L 0 600.52 Q 118.5 651.954 237 618.586 T 474 469.558 T 711 436.013 T 948 399.288 T 1185 333.695 L 1185 0 Z" fill="url(#lg-0.2860871880816833)" opacity="0.4" style="opacity:0.4;animation-play-state:paused" ></path></g></svg>